<svg id="visual" viewBox="0 0 960 540" width="960" height="540" xmlns="http://www.w3.org/2000/svg" xmlns:xlink="http://www.w3.org/1999/xlink" version="1.1"><rect x="0" y="0" width="960" height="540" fill="#2b2b38"></rect><g fill="none" stroke="#732d0f" stroke-width="2"><circle r="60" cx="451" cy="173"></circle><circle r="10" cx="199" cy="425"></circle><circle r="42" cx="171" cy="238"></circle><circle r="44" cx="900" cy="371"></circle><circle r="42" cx="3" cy="240"></circle><circle r="53" cx="505" cy="483"></circle><circle r="12" cx="663" cy="113"></circle><circle r="10" cx="193" cy="116"></circle><circle r="30" cx="69" cy="412"></circle><circle r="51" cx="686" cy="352"></circle><circle r="31" cx="332" cy="61"></circle><circle r="34" cx="734" cy="237"></circle><circle r="22" cx="778" cy="495"></circle><circle r="20" cx="529" cy="296"></circle><circle r="41" cx="741" cy="2"></circle><circle r="29" cx="315" cy="309"></circle><circle r="26" cx="67" cy="44"></circle><circle r="35" cx="344" cy="447"></circle><circle r="35" cx="525" cy="21"></circle><circle r="24" cx="928" cy="2"></circle><circle r="24" cx="886" cy="230"></circle><circle r="49" cx="817" cy="109"></circle><circle r="50" cx="40" cy="539"></circle><circle r="57" cx="643" cy="527"></circle><circle r="19" cx="257" cy="534"></circle><circle r="20" cx="901" cy="505"></circle></g></svg>